<?xml version="1.0" encoding="UTF-8"?>
<svg version="1.1" xmlns="http://www.w3.org/2000/svg" width="908" height="219">
<path d="M0 0 C1.64834047 -0.00570852 3.29667699 -0.01267464 4.94500732 -0.02079773 C9.40593104 -0.03869356 13.86665765 -0.03756719 18.32760644 -0.03185534 C22.05994833 -0.02875751 25.7922527 -0.03486273 29.52458924 -0.04089409 C38.33527244 -0.05492673 47.14585866 -0.05338926 55.95654297 -0.04199219 C65.02588514 -0.03051926 74.0949313 -0.04457561 83.16423446 -0.07138866 C90.96834585 -0.09359172 98.77236465 -0.10017247 106.57650536 -0.09431225 C111.22976437 -0.09095162 115.8828338 -0.09329773 120.53606606 -0.11056328 C124.91519634 -0.12610334 129.29389065 -0.12199916 133.67300415 -0.10325813 C135.2728842 -0.09959133 136.87279705 -0.10262455 138.47264671 -0.11314392 C149.11832539 -0.17775378 159.37313928 0.14987796 167.69018555 7.65405273 C173.72396589 14.38236895 175.87148319 21.29990703 175.89312744 30.20243835 C175.89609856 30.88554276 175.89906969 31.56864716 175.90213084 32.2724517 C175.91080014 34.56071591 175.9123246 36.8489277 175.91381836 39.13720703 C175.91844785 40.77834688 175.92347269 42.41948565 175.92886353 44.06062317 C175.94197844 48.51952568 175.94843092 52.97841313 175.95287418 57.43733191 C175.95580688 60.22478738 175.95991211 63.01223875 175.96437836 65.79969215 C175.97805202 74.52581249 175.98771884 83.25192344 175.99158025 91.97805375 C175.99605829 102.04178302 176.01359496 112.1053763 176.04258084 122.16906422 C176.06422136 129.95351268 176.07428582 137.73792295 176.07562137 145.52240115 C176.07666786 150.16893005 176.08254234 154.81533108 176.10044098 159.46182823 C176.11696226 163.83589145 176.11905754 168.20973125 176.11030197 172.58381462 C176.10953372 174.18453827 176.11384629 175.78527412 176.12376022 177.38596725 C176.1890557 188.5904268 175.88455786 198.05111544 167.85424805 206.61108398 C161.11598323 212.35990099 153.76469415 214.51757937 145.08837891 214.55795288 C144.41964186 214.56233513 143.75090481 214.56671739 143.061903 214.57123244 C140.82210884 214.58458158 138.582354 214.59079062 136.3425293 214.59692383 C134.73581262 214.6048281 133.12909771 214.61309725 131.52238464 214.6217041 C126.24500212 214.64789487 120.96761179 214.66323257 115.69018555 214.67749023 C113.87025956 214.68285184 112.05033361 214.68822935 110.23040771 214.69362259 C102.6555856 214.71525034 95.08076558 214.73398394 87.50592041 214.74524498 C76.66936291 214.76146328 65.83316513 214.79459065 54.9967432 214.85164583 C47.36766344 214.89043605 39.7386795 214.90988861 32.10950375 214.91516554 C27.55834291 214.91880765 23.00756601 214.93070625 18.45651245 214.96326828 C14.16851279 214.99350786 9.88112614 214.9996047 5.59304237 214.98788452 C4.02742532 214.98766508 2.4617785 214.99586168 0.89626122 215.01353836 C-10.9199047 215.13959081 -21.90253054 213.50639808 -30.84887695 205.08374023 C-39.79526774 194.33807532 -38.39797864 179.61175707 -38.39257812 166.50024414 C-38.39557707 165.03204769 -38.39898126 163.56385201 -38.40275574 162.09565735 C-38.4115236 158.13894621 -38.41393074 154.18225674 -38.41457152 150.22553682 C-38.41528596 147.74606258 -38.41742763 145.26659372 -38.42006874 142.78712082 C-38.42929716 134.11613367 -38.43340663 125.44516182 -38.43261719 116.77416992 C-38.43201656 108.72451545 -38.44257195 100.67492803 -38.45836085 92.62529051 C-38.47148337 85.68479241 -38.47679914 78.74431611 -38.47616178 71.80380571 C-38.47590824 67.67148305 -38.47867912 63.53922011 -38.48933983 59.40690994 C-38.499101 55.51785058 -38.49904575 51.62890709 -38.4918232 47.73984337 C-38.49078735 46.32301728 -38.49307978 44.90618366 -38.49918365 43.48937035 C-38.60516653 17.1575045 -38.60516653 17.1575045 -30.48950195 8.53686523 C-21.33561888 -0.11445171 -11.9732504 -0.03744293 0 0 Z M100.75268555 70.40405273 C100.66582952 71.96578018 100.64566335 73.53134618 100.6550293 75.09545898 C100.65986328 76.51181641 100.65986328 76.51181641 100.66479492 77.95678711 C100.67317383 78.95000977 100.68155273 79.94323242 100.69018555 80.96655273 C100.69469727 81.96364258 100.69920898 82.96073242 100.70385742 83.98803711 C100.71568548 86.46010122 100.73216705 88.93204791 100.75268555 91.40405273 C99.03758789 91.38665039 99.03758789 91.38665039 97.2878418 91.36889648 C95.79695801 91.35951986 94.30607246 91.35041952 92.81518555 91.34155273 C92.06043945 91.33317383 91.30569336 91.32479492 90.52807617 91.31616211 C88.60274241 91.30752833 86.67732974 91.35180941 84.75268555 91.40405273 C82.99708613 93.15965215 83.62046635 95.43987715 83.6159668 97.77514648 C83.61983398 98.47768555 83.62370117 99.18022461 83.62768555 99.90405273 C83.62381836 100.6065918 83.61995117 101.30913086 83.6159668 102.03295898 C83.30877624 105.50834082 83.30877624 105.50834082 84.75268555 108.40405273 C87.44504331 108.6408399 90.1176671 108.82603299 92.81518555 108.96655273 C93.95310547 109.03132813 93.95310547 109.03132813 95.11401367 109.09741211 C96.99333992 109.20378907 98.87298798 109.30445207 100.75268555 109.40405273 C100.74221191 110.70028564 100.73173828 111.99651855 100.72094727 113.33203125 C100.68463045 118.16077898 100.66174259 122.98951473 100.64282227 127.81835938 C100.63279128 129.90464308 100.61916328 131.99091282 100.60180664 134.07714844 C100.57743061 137.08328711 100.56617319 140.08923919 100.55737305 143.09545898 C100.54705048 144.02177628 100.53672791 144.94809357 100.52609253 145.90248108 C100.52506566 151.88704894 100.56412519 157.69792743 104.48706055 162.54858398 C111.76327107 168.56978921 118.3286556 170.34340904 127.75268555 170.40405273 C131.8217722 169.93834224 135.72984434 169.20862097 139.75268555 168.40405273 C139.75268555 163.45405273 139.75268555 158.50405273 139.75268555 153.40405273 C134.99782489 152.86716969 134.99782489 152.86716969 130.23999023 152.35791016 C126.29957996 151.87304257 123.46816059 151.39510816 120.75268555 148.40405273 C119.55610207 144.13638624 119.62342603 139.87408584 119.6550293 135.47827148 C119.65644424 134.73068069 119.65785919 133.9830899 119.65931702 133.21284485 C119.66488791 130.83903909 119.67743495 128.46532971 119.69018555 126.09155273 C119.69520431 124.47631973 119.69976656 122.86108523 119.70385742 121.24584961 C119.7148478 117.29854718 119.73209223 113.35131627 119.75268555 109.40405273 C121.04045898 109.3434668 122.32823242 109.28288086 123.6550293 109.22045898 C125.33342714 109.13607027 127.01181191 109.05142144 128.69018555 108.96655273 C129.54032227 108.92723633 130.39045898 108.88791992 131.26635742 108.84741211 C132.07524414 108.80551758 132.88413086 108.76362305 133.7175293 108.72045898 C134.46639404 108.68380127 135.21525879 108.64714355 135.98681641 108.609375 C137.77729881 108.58634211 137.77729881 108.58634211 138.75268555 107.40405273 C138.85243587 104.89269169 138.89150738 102.41501859 138.87768555 99.90405273 C138.88155273 99.20151367 138.88541992 98.49897461 138.8894043 97.77514648 C139.19659485 94.29976465 139.19659485 94.29976465 137.75268555 91.40405273 C136.33698432 91.31753663 134.91709054 91.29700369 133.4987793 91.30639648 C132.72977295 91.30889404 131.9607666 91.3113916 131.16845703 91.31396484 C129.69421265 91.32762085 129.69421265 91.32762085 128.19018555 91.34155273 C123.51862305 91.37249023 123.51862305 91.37249023 118.75268555 91.40405273 C118.75268555 84.47405273 118.75268555 77.54405273 118.75268555 70.40405273 C114.95337114 69.45422413 111.9562652 69.27033811 108.06518555 69.27905273 C106.32688477 69.27518555 106.32688477 69.27518555 104.5534668 69.27124023 C101.84769398 69.08477101 101.84769398 69.08477101 100.75268555 70.40405273 Z M11.4206543 101.80249023 C9.38262951 104.26021957 7.53583807 106.75672464 5.75268555 109.40405273 C5.32084961 110.02795898 4.88901367 110.65186523 4.4440918 111.29467773 C-0.79596431 120.1240763 -1.66792618 133.54972809 0.75268555 143.40405273 C5.2229946 155.5311195 13.0600032 163.93954807 24.75268555 169.40405273 C35.93223132 173.60596706 47.12139547 173.14872345 58.17456055 168.70483398 C64.20928497 165.6600412 69.88788118 161.70662234 72.75268555 155.40405273 C71.48381591 154.27683838 70.21250993 153.15236615 68.94018555 152.02905273 C68.23249023 151.40256836 67.52479492 150.77608398 66.7956543 150.13061523 C63.61139834 147.22285269 63.61139834 147.22285269 59.56518555 146.52905273 C56.54211108 147.34389908 56.54211108 147.34389908 53.37768555 149.46655273 C47.25398697 152.63318013 40.43933327 152.24445108 33.75268555 151.40405273 C27.96685327 149.3655661 24.67304158 145.77750784 21.75268555 140.40405273 C19.57008764 133.85625903 19.45095154 125.18078572 22.37768555 118.84155273 C25.46879321 113.81177128 29.26619281 110.56687795 35.00268555 109.02905273 C42.62492803 107.69676161 49.25896223 108.5864086 55.96362305 112.46655273 C58.01908588 113.54365116 59.42400412 114.20927455 61.75268555 114.40405273 C64.42665536 113.14440159 64.42665536 113.14440159 67.00268555 111.21655273 C68.34073242 110.2980957 68.34073242 110.2980957 69.70581055 109.36108398 C70.3812793 108.71526367 71.05674805 108.06944336 71.75268555 107.40405273 C72.08670973 103.52361821 72.08670973 103.52361821 70.37768555 101.02905273 C62.54221187 93.19357906 52.75333538 89.31285338 41.81518555 89.02905273 C29.96818583 89.34683706 19.82020682 93.16375447 11.4206543 101.80249023 Z " fill="#000000" transform="translate(729.247314453125,2.595947265625)"/>
<path d="M0 0 C1.13200333 -0.00315216 2.26400665 -0.00630432 3.43031311 -0.009552 C5.27549782 -0.00651566 5.27549782 -0.00651566 7.15795898 -0.00341797 C9.05275246 -0.00485306 9.05275246 -0.00485306 10.98582458 -0.00631714 C13.66669094 -0.00699905 16.34746683 -0.00564377 19.02832031 -0.00097656 C22.44197824 0.00468037 25.85555684 0.00146726 29.26921177 -0.00454903 C32.54463019 -0.00906734 35.82003952 -0.00588564 39.09545898 -0.00341797 C40.31141251 -0.0054422 41.52736603 -0.00746643 42.78016663 -0.009552 C60.50100796 0.03884975 60.50100796 0.03884975 62.59155273 2.12939453 C63.68517274 8.93414122 63.68668768 15.3395579 62.59155273 22.12939453 C61.59155273 23.12939453 61.59155273 23.12939453 59.80088806 23.24964905 C59.0214534 23.24742844 58.24201874 23.24520782 57.43896484 23.24291992 C56.55812729 23.24284439 55.67728973 23.24276886 54.76976013 23.24269104 C53.81247513 23.23752975 52.85519012 23.23236847 51.86889648 23.22705078 C50.89368546 23.22563583 49.91847443 23.22422089 48.91371155 23.22276306 C45.78546131 23.21714586 42.6572815 23.20459046 39.52905273 23.19189453 C37.41381939 23.18688175 35.29858493 23.18231846 33.18334961 23.17822266 C27.98603473 23.16801984 22.78887298 23.14844784 17.59155273 23.12939453 C17.59155273 31.37939453 17.59155273 39.62939453 17.59155273 48.12939453 C30.79155273 48.12939453 43.99155273 48.12939453 57.59155273 48.12939453 C58.36722885 52.78345125 58.72647503 56.71591621 58.71655273 61.37939453 C58.72041992 63.21244141 58.72041992 63.21244141 58.72436523 65.08251953 C58.59155273 68.12939453 58.59155273 68.12939453 57.59155273 70.12939453 C44.72155273 70.45939453 31.85155273 70.78939453 18.59155273 71.12939453 C18.26155273 77.72939453 17.93155273 84.32939453 17.59155273 91.12939453 C20.73299805 91.11779297 23.87444336 91.10619141 27.11108398 91.09423828 C30.14925027 91.08644244 33.18741546 91.08036867 36.22558594 91.07446289 C38.33919777 91.06943009 40.45280612 91.06260333 42.56640625 91.05395508 C45.60214091 91.04184349 48.63782959 91.03615572 51.67358398 91.03173828 C53.09402763 91.02399635 53.09402763 91.02399635 54.54316711 91.01609802 C55.86419685 91.01598473 55.86419685 91.01598473 57.21191406 91.01586914 C57.9869075 91.01364853 58.76190094 91.01142792 59.56037903 91.00914001 C61.59155273 91.12939453 61.59155273 91.12939453 64.59155273 92.12939453 C64.62042785 95.7752114 64.63830858 99.42099917 64.65405273 103.06689453 C64.66243164 104.1078125 64.67081055 105.14873047 64.67944336 106.22119141 C64.68266602 107.21054688 64.68588867 108.19990234 64.68920898 109.21923828 C64.6944458 110.13568115 64.69968262 111.05212402 64.70507812 111.99633789 C64.59155273 114.12939453 64.59155273 114.12939453 63.59155273 115.12939453 C61.41892593 115.22895731 59.24302167 115.25739172 57.06811523 115.25878906 C56.38682556 115.26054138 55.70553589 115.2622937 55.00360107 115.26409912 C52.74122606 115.26851695 50.4789286 115.26557991 48.21655273 115.26220703 C46.65096013 115.26288009 45.08536763 115.26385013 43.51977539 115.2651062 C40.23444628 115.26658308 36.94914432 115.26442894 33.66381836 115.25976562 C29.44334757 115.25406834 25.22294037 115.25734739 21.00247192 115.26333809 C17.76838701 115.26694397 14.53431729 115.26580499 11.30023193 115.2632103 C9.74363192 115.2625411 8.18703055 115.26336919 6.63043213 115.26568985 C4.45858078 115.26821683 2.28683377 115.26437518 0.11499023 115.25878906 C-1.12331543 115.25799347 -2.36162109 115.25719788 -3.63745117 115.25637817 C-6.40844727 115.12939453 -6.40844727 115.12939453 -7.40844727 114.12939453 C-7.53691421 112.53944673 -7.59688842 110.94391424 -7.62963867 109.34912109 C-7.65276627 108.31718628 -7.67589386 107.28525146 -7.69972229 106.2220459 C-7.71961716 105.0828772 -7.73951202 103.9437085 -7.76000977 102.77001953 C-7.79535072 100.98778992 -7.79535072 100.98778992 -7.83140564 99.16955566 C-7.89288631 95.9163995 -7.94886522 92.6632184 -8.00078201 89.40989685 C-8.03332674 87.3868868 -8.06778153 85.36391603 -8.10250854 83.34094238 C-8.56353141 55.92196866 -8.16268522 28.541925 -7.40844727 1.12939453 C-4.80792094 -0.17086863 -2.91209665 0.00231968 0 0 Z " fill="#000000" transform="translate(10.408447265625,57.87060546875)"/>
<path d="M0 0 C3.22619588 5.09399349 2.30181382 12.14921673 2.2409668 17.96362305 C2.23457184 18.9642981 2.22817688 19.96497314 2.22158813 20.99597168 C2.19886468 24.29295648 2.16823787 27.58980707 2.13671875 30.88671875 C2.1174824 33.18024042 2.09842672 35.4737636 2.07954407 37.76728821 C2.0386089 42.56796392 1.99338642 47.36857772 1.94555664 52.16918945 C1.88482181 58.32969886 1.83798083 64.49022809 1.79472637 70.65088177 C1.75942852 75.3837441 1.71518531 80.1164915 1.66837502 84.8492527 C1.64729634 87.12148153 1.629404 89.39374219 1.6147213 91.66602135 C1.59322171 94.83570692 1.55931796 98.00502455 1.5222168 101.17456055 C1.51848557 102.11747452 1.51475433 103.06038849 1.51091003 104.03187561 C1.49830139 104.89398651 1.48569275 105.75609741 1.47270203 106.64433289 C1.46587245 107.39333201 1.45904287 108.14233114 1.45200634 108.91402721 C1.1875 110.875 1.1875 110.875 -0.8125 113.875 C-2.66015625 114.23144531 -2.66015625 114.23144531 -4.875 114.203125 C-5.67164063 114.19796875 -6.46828125 114.1928125 -7.2890625 114.1875 C-8.12179688 114.166875 -8.95453125 114.14625 -9.8125 114.125 C-11.06160156 114.11726563 -11.06160156 114.11726563 -12.3359375 114.109375 C-18.50342608 114.02953696 -18.50342608 114.02953696 -20.8125 112.875 C-21.2265625 110.80859375 -21.2265625 110.80859375 -21.4375 108.3125 C-21.51226562 107.48621094 -21.58703125 106.65992188 -21.6640625 105.80859375 C-21.71304688 105.17050781 -21.76203125 104.53242188 -21.8125 103.875 C-22.4725 104.7825 -23.1325 105.69 -23.8125 106.625 C-29.33345952 113.21904742 -37.85045412 115.40688246 -46.125 116.1875 C-56.16957131 115.33626514 -65.06195228 112.17143473 -72 104.6875 C-81.09688826 93.26061857 -83.13964621 80.08666547 -81.8125 65.875 C-79.93258257 54.94446215 -75.74201618 45.755096 -67.1875 38.5 C-59.89340877 33.51452405 -49.64994428 30.3126661 -40.8125 31.875 C-34.46847816 33.68343305 -29.53276032 36.27577199 -24.8125 40.875 C-24.4825 41.535 -24.1525 42.195 -23.8125 42.875 C-23.77491577 40.97439819 -23.77491577 40.97439819 -23.73657227 39.03540039 C-23.64268004 34.35202221 -23.54241565 29.6687987 -23.44018555 24.9855957 C-23.39676759 22.95535896 -23.35509774 20.92508408 -23.31518555 18.89477539 C-23.25764854 15.98311849 -23.19390722 13.07165486 -23.12890625 10.16015625 C-23.10383751 8.78985008 -23.10383751 8.78985008 -23.07826233 7.39186096 C-22.92637171 0.98887171 -22.92637171 0.98887171 -21.8125 -0.125 C-19.58822582 -0.36363074 -17.35720667 -0.54055223 -15.125 -0.6875 C-13.90425781 -0.77128906 -12.68351562 -0.85507812 -11.42578125 -0.94140625 C-2.26650544 -1.40679648 -2.26650544 -1.40679648 0 0 Z M-54.38671875 58.74609375 C-59.46362109 66.44145576 -59.38761469 73.9313693 -57.8125 82.875 C-55.67744279 88.21264302 -52.97761186 91.28869581 -47.8125 93.875 C-41.31465305 95.37174544 -35.31481558 95.70423836 -29.49609375 92.171875 C-24.49669509 88.32083009 -21.9831088 84.15371994 -20.8125 77.875 C-20.15946997 71.51961842 -20.84455591 65.59968617 -23.8125 59.875 C-27.5128232 55.38876745 -32.21247678 53.310757 -37.91015625 52.62109375 C-44.42184258 52.27484628 -50.05815847 53.6012293 -54.38671875 58.74609375 Z " fill="#000000" transform="translate(162.8125,59.125)"/>
<path d="M0 0 C0.84691406 0.26683594 1.69382812 0.53367188 2.56640625 0.80859375 C10.69427832 3.67052053 18.08303273 8.73152972 24 15 C22.49972651 18.75487443 20.36477047 20.56107574 17.1875 23 C16.33542969 23.66 15.48335938 24.32 14.60546875 25 C13.31576172 25.99 13.31576172 25.99 12 27 C11.11570312 27.73992187 10.23140625 28.47984375 9.3203125 29.2421875 C7 31 7 31 4.6875 31.125 C1.37088975 29.73665152 -1.09110585 27.7698561 -3.83984375 25.47265625 C-10.98605697 20.60082554 -20.6817854 20.98651178 -29 22 C-36.02973376 24.08224672 -40.38849059 27.47858072 -44.046875 33.8125 C-48.15740155 41.43782461 -49.3728833 48.81351051 -49.3125 57.375 C-49.30686035 58.21135986 -49.3012207 59.04771973 -49.29541016 59.90942383 C-49.10355305 69.66849206 -47.25581797 78.00774806 -40 85 C-32.58705047 90.9045005 -23.96927029 90.99795101 -14.90722656 90.24804688 C-9.13405029 89.49720879 -5.00121705 87.0018752 -0.75 83.1875 C2 81 2 81 4.21875 81.03125 C8.16164125 82.40461662 11.01557414 84.71891992 14.25 87.3125 C15.20519531 88.04243164 15.20519531 88.04243164 16.1796875 88.78710938 C16.78554688 89.26599609 17.39140625 89.74488281 18.015625 90.23828125 C18.56508789 90.67180908 19.11455078 91.10533691 19.68066406 91.55200195 C21.27296439 93.29958398 21.60489842 94.69677936 22 97 C10.3346085 109.27935948 -6.38472508 114.89393413 -23 115.375 C-37.28694603 114.99102833 -50.49336801 111.15855918 -61.08984375 101.21484375 C-72.43347522 88.06179867 -75.30334063 72.63970601 -75.4375 55.75 C-75.4478125 54.67331055 -75.458125 53.59662109 -75.46875 52.48730469 C-75.28844675 36.12478474 -70.03394859 22.25032775 -58.63671875 10.41015625 C-42.97193624 -3.90861532 -19.65590999 -6.66742321 0 0 Z " fill="#000000" transform="translate(327,60)"/>
<path d="M0 0 C8.03268706 7.1003216 13.11447499 19.07171237 14.0625 29.609375 C14.49493243 36.74451014 14.49493243 36.74451014 13.0625 39.609375 C-4.28004258 42.66304529 -23.46493823 40.92274877 -40.9375 39.609375 C-39.00662068 47.49639187 -39.00662068 47.49639187 -33.75 53.234375 C-28.39859078 55.57203556 -23.10220368 55.91319306 -17.375 55.109375 C-12.76077792 53.09589627 -9.52205197 50.0915112 -5.9375 46.609375 C-5.46441406 46.98449219 -4.99132812 47.35960937 -4.50390625 47.74609375 C0.44056775 51.57251905 5.52570555 54.71281124 11.0625 57.609375 C10.2300324 63.35980503 5.44579981 66.28889337 1.0625 69.609375 C-10.29238439 76.7780441 -22.05453882 77.88229235 -35 75.359375 C-44.10916305 73.24369842 -51.21638278 70.27181514 -56.9375 62.609375 C-64.36469892 49.74149344 -67.54897009 36.37064042 -64.50683594 21.50488281 C-61.62022295 11.5230887 -55.80104109 2.13370923 -47.0234375 -3.65234375 C-32.07117276 -11.6646131 -13.6301942 -9.78296197 0 0 Z M-38.26171875 16.2265625 C-40.31801485 19.58878699 -40.9375 21.63189799 -40.9375 25.609375 C-30.7075 25.609375 -20.4775 25.609375 -9.9375 25.609375 C-11.91931948 18.67300681 -13.10189532 15.78633982 -19.25 12.296875 C-25.72784118 10.63975284 -33.65148992 10.59637154 -38.26171875 16.2265625 Z " fill="#000000" transform="translate(664.9375,99.390625)"/>
<path d="M0 0 C1.25816528 0.00241699 1.25816528 0.00241699 2.54174805 0.00488281 C13.87593228 0.22710036 23.40575721 3.56666744 31.375 11.8125 C41.21792358 23.47089615 42.66306769 36.77425501 41.875 51.375 C40.17375304 61.48871221 35.00858699 71.04185751 26.875 77.375 C15.46738771 84.50712245 1.83623854 86.51824937 -11.3203125 83.6875 C-21.70617577 80.21590225 -30.20849907 73.2465869 -35.63671875 63.72265625 C-41.92101251 50.30775982 -41.05437859 36.30358421 -36.125 22.59375 C-32.30815909 14.00585795 -25.74852754 7.00913987 -17.14453125 3.12890625 C-16.47808594 2.88011719 -15.81164062 2.63132812 -15.125 2.375 C-14.24457031 2.02050781 -13.36414063 1.66601562 -12.45703125 1.30078125 C-8.23831265 0.12864021 -4.35963838 -0.00868887 0 0 Z M-13.375 27.75 C-17.17889882 33.45584823 -18.66334673 39.67514759 -17.87890625 46.5234375 C-16.5713516 52.56364569 -14.06312258 56.91151968 -9.0625 60.6875 C-4.4559776 63.3338001 -0.37212314 64.04842757 4.875 63.375 C11.04473001 61.32214228 14.52945168 58.14827339 17.953125 52.640625 C20.22313484 47.06178726 19.75301214 39.59271495 18.1875 33.85546875 C15.78815925 28.62690536 12.04401013 24.95950507 6.875 22.375 C-1.13592171 21.75139532 -7.55965988 21.61158543 -13.375 27.75 Z " fill="#000000" transform="translate(388.125,90.625)"/>
<path d="M0 0 C6.52515966 5.8726437 10.70553997 12.57924611 12.5 21.25 C12.59073057 23.10790518 12.62788894 24.96873877 12.62939453 26.82885742 C12.63254669 27.94648972 12.63569885 29.06412201 12.63894653 30.21562195 C12.63591019 32.01734612 12.63591019 32.01734612 12.6328125 33.85546875 C12.63376923 35.0904158 12.63472595 36.32536285 12.63571167 37.59773254 C12.63656612 40.87378706 12.6325428 44.14979407 12.62695312 47.42584229 C12.6249975 49.44007873 12.62695186 51.45427179 12.63037109 53.46850586 C12.63652033 57.32668095 12.63580843 61.18479104 12.6328125 65.04296875 C12.63483673 66.25019089 12.63686096 67.45741302 12.63894653 68.70121765 C12.63421829 70.36348137 12.63421829 70.36348137 12.62939453 72.05932617 C12.62859894 73.03987473 12.62780334 74.02042328 12.62698364 75.03068542 C12.5 77.25 12.5 77.25 11.5 78.25 C9.95044441 78.34899523 8.39646327 78.38079524 6.84375 78.3828125 C5.43416016 78.38474609 5.43416016 78.38474609 3.99609375 78.38671875 C2.51302734 78.38091797 2.51302734 78.38091797 1 78.375 C0.01128906 78.37886719 -0.97742188 78.38273437 -1.99609375 78.38671875 C-2.93582031 78.38542969 -3.87554688 78.38414062 -4.84375 78.3828125 C-5.71193359 78.38168457 -6.58011719 78.38055664 -7.47460938 78.37939453 C-9.5 78.25 -9.5 78.25 -10.5 77.25 C-10.61164643 75.89675631 -10.65668051 74.53791201 -10.67358398 73.18017578 C-10.68707382 72.31482208 -10.70056366 71.44946838 -10.71446228 70.55789185 C-10.72490067 69.61324066 -10.73533905 68.66858948 -10.74609375 67.6953125 C-10.77907345 65.69791297 -10.8122843 63.70051724 -10.84570312 61.703125 C-10.89282667 58.55243975 -10.93716324 55.40176507 -10.97680664 52.25097656 C-11.01695277 49.21140965 -11.06843468 46.17218499 -11.12109375 43.1328125 C-11.1295079 42.20840363 -11.13792206 41.28399475 -11.14659119 40.33157349 C-11.23476039 35.5799338 -11.55659757 30.90394156 -12.21118164 26.19482422 C-12.33537979 25.29529022 -12.45957794 24.39575623 -12.58753967 23.46896362 C-13.32055728 21.01714862 -13.32055728 21.01714862 -15.91062927 19.96194458 C-20.44534568 18.71512938 -24.84530763 18.67603793 -29.5 19.25 C-33.22526725 21.37872414 -34.8203523 23.39038401 -36.5 27.25 C-38.61933855 36.84700476 -37.57440413 47.48002976 -37.5 57.25 C-37.47345175 60.79166333 -37.45348282 64.33327511 -37.4375 67.875 C-37.42920166 68.68638428 -37.42090332 69.49776855 -37.41235352 70.33374023 C-37.38723564 76.02447127 -37.38723564 76.02447127 -38.5 78.25 C-41.958176 78.3368329 -45.41607344 78.39033282 -48.875 78.4375 C-49.85984375 78.46263672 -50.8446875 78.48777344 -51.859375 78.51367188 C-52.80039062 78.52333984 -53.74140625 78.53300781 -54.7109375 78.54296875 C-55.58024902 78.5586792 -56.44956055 78.57438965 -57.34521484 78.59057617 C-58.05629395 78.47818604 -58.76737305 78.3657959 -59.5 78.25 C-61.98097921 74.52853119 -61.75888566 72.61057405 -61.7746582 68.1640625 C-61.77976913 67.44667908 -61.78488007 66.72929565 -61.79014587 65.99017334 C-61.80404851 63.61836409 -61.80308484 61.24684515 -61.80078125 58.875 C-61.80466742 57.2273752 -61.80900193 55.5797514 -61.81376648 53.93212891 C-61.82122983 50.4788081 -61.82093631 47.02558954 -61.81567383 43.57226562 C-61.80987476 39.14340264 -61.82681996 34.71495724 -61.8500185 30.28616333 C-61.8647372 26.88384549 -61.86563018 23.4816287 -61.86250877 20.07928467 C-61.86302279 18.44617891 -61.86827551 16.81306762 -61.87832069 15.17999268 C-61.89063397 12.8983632 -61.88392528 10.61755348 -61.87231445 8.3359375 C-61.87294388 7.0370459 -61.8735733 5.7381543 -61.8742218 4.39990234 C-61.5 1.25 -61.5 1.25 -60.20280457 -0.67016602 C-57.26942019 -2.53037253 -53.98246832 -2.13811866 -50.625 -2.0625 C-49.56345703 -2.06733398 -49.56345703 -2.06733398 -48.48046875 -2.07226562 C-44.43637094 -2.03084563 -41.04140921 -1.78817242 -37.5 0.25 C-36.6875 3.375 -36.6875 3.375 -36.5 6.25 C-36.07589844 5.85167969 -35.65179687 5.45335938 -35.21484375 5.04296875 C-25.08775245 -4.10479944 -12.43414257 -6.21707128 0 0 Z " fill="#000000" transform="translate(580.5,94.75)"/>
<path d="M0 0 C6.68902861 4.89732452 10.41040861 11.9374779 12 20 C13.216913 32.61983852 13.10607596 45.33434141 13.125 58 C13.1275882 58.8149292 13.13017639 59.6298584 13.13284302 60.46948242 C13.1387072 62.81303267 13.13710907 65.15644864 13.1328125 67.5 C13.13479141 68.21176392 13.13677032 68.92352783 13.1388092 69.65686035 C13.12440172 72.71657026 12.97571349 75.07285952 12 78 C8.52085059 78.02887814 5.04173169 78.04675687 1.5625 78.0625 C0.07266602 78.07506836 0.07266602 78.07506836 -1.44726562 78.08789062 C-2.86362305 78.09272461 -2.86362305 78.09272461 -4.30859375 78.09765625 C-5.18314209 78.10289307 -6.05769043 78.10812988 -6.95874023 78.11352539 C-9 78 -9 78 -10 77 C-10.2506405 74.18106793 -10.43061359 71.38794378 -10.5625 68.5625 C-10.62836304 67.25200684 -10.62836304 67.25200684 -10.69555664 65.91503906 C-11.08115705 57.25525382 -11.03802294 48.60136833 -10.87524414 39.93579102 C-10.59896578 29.96029254 -10.59896578 29.96029254 -14.5 21.0625 C-18.87265907 17.96519982 -23.84031927 18.6191842 -29 19 C-32.09235783 19.70425322 -32.09235783 19.70425322 -34 22 C-37.03361872 28.49799365 -37.4646477 34.87151238 -37.51171875 41.94140625 C-37.52966995 42.94968979 -37.54762115 43.95797333 -37.56611633 44.99681091 C-37.61986129 48.18533267 -37.65399973 51.37370786 -37.6875 54.5625 C-37.72070469 56.73765045 -37.75519723 58.91278164 -37.79101562 61.08789062 C-37.87556663 66.3917955 -37.94406642 71.69572022 -38 77 C-41.54012525 78.77006262 -45.60068119 78.22716358 -49.5 78.25 C-50.38042969 78.270625 -51.26085937 78.29125 -52.16796875 78.3125 C-53.00972656 78.31765625 -53.85148437 78.3228125 -54.71875 78.328125 C-55.49154297 78.3374707 -56.26433594 78.34681641 -57.06054688 78.35644531 C-57.70056641 78.23881836 -58.34058594 78.12119141 -59 78 C-61.48097921 74.27853119 -61.25888566 72.36057405 -61.2746582 67.9140625 C-61.27976913 67.19667908 -61.28488007 66.47929565 -61.29014587 65.74017334 C-61.30404851 63.36836409 -61.30308484 60.99684515 -61.30078125 58.625 C-61.30466742 56.9773752 -61.30900193 55.3297514 -61.31376648 53.68212891 C-61.32122983 50.2288081 -61.32093631 46.77558954 -61.31567383 43.32226562 C-61.30987476 38.89340264 -61.32681996 34.46495724 -61.3500185 30.03616333 C-61.3647372 26.63384549 -61.36563018 23.2316287 -61.36250877 19.82928467 C-61.36302279 18.19617891 -61.36827551 16.56306762 -61.37832069 14.92999268 C-61.39063397 12.6483632 -61.38392528 10.36755348 -61.37231445 8.0859375 C-61.37294388 6.7870459 -61.3735733 5.4881543 -61.3742218 4.14990234 C-61 1 -61 1 -59.6050415 -0.91960144 C-57.50437704 -2.33361775 -56.14288125 -2.37307511 -53.62109375 -2.36328125 C-52.78255859 -2.36263672 -51.94402344 -2.36199219 -51.08007812 -2.36132812 C-49.77200195 -2.3371582 -49.77200195 -2.3371582 -48.4375 -2.3125 C-47.56158203 -2.31572266 -46.68566406 -2.31894531 -45.78320312 -2.32226562 C-39.26708681 -2.26708681 -39.26708681 -2.26708681 -37 0 C-36.375 2.625 -36.375 2.625 -36 5 C-35.25556641 4.38511719 -35.25556641 4.38511719 -34.49609375 3.7578125 C-24.76889095 -3.95750205 -11.32346945 -6.11902868 0 0 Z " fill="#000000" transform="translate(498,95)"/>
<path d="M0 0 C0.77214844 -0.020625 1.54429687 -0.04125 2.33984375 -0.0625 C8.01122884 -0.10181636 8.01122884 -0.10181636 10.22583008 1.49224854 C11.84773948 3.7297159 11.84763195 4.95546264 11.79296875 7.70214844 C11.78305908 8.60028259 11.77314941 9.49841675 11.76293945 10.42376709 C11.72559692 11.87689301 11.72559692 11.87689301 11.6875 13.359375 C11.67614014 14.35954651 11.66478027 15.35971802 11.65307617 16.39019775 C11.60403486 20.6717213 11.51993342 24.95238821 11.43847656 29.23339844 C11.38404906 32.35868316 11.34786441 35.48382557 11.3125 38.609375 C11.27515747 40.05035553 11.27515747 40.05035553 11.23706055 41.52044678 C11.1668747 47.9708399 11.65393369 53.30164378 16.34765625 58.1640625 C20.50295679 60.26056622 24.97427127 59.74017537 29.5 59.25 C32.90196792 57.93086958 34.03762458 57.21042528 35.60987854 53.9446106 C36.51684723 51.19899941 36.72604363 49.1997967 36.67944336 46.32373047 C36.66960922 45.3727951 36.65977509 44.42185974 36.64964294 43.44210815 C36.62990921 42.42738434 36.61017548 41.41266052 36.58984375 40.3671875 C36.56943257 38.20963757 36.54925735 36.0520854 36.52929688 33.89453125 C36.48569392 30.49941293 36.43717533 27.10444753 36.38354492 23.70947266 C36.33540313 20.4287161 36.30544808 17.14816768 36.27734375 13.8671875 C36.25558578 12.84841522 36.23382782 11.82964294 36.21141052 10.77999878 C36.20472855 9.83536774 36.19804657 8.89073669 36.19116211 7.91748047 C36.17846786 7.08650848 36.16577362 6.2555365 36.1526947 5.39938354 C36.5 3.25 36.5 3.25 37.77516174 1.48098755 C40.79947941 -0.67741622 44.42588794 -0.13708498 48 -0.0625 C49.15822266 -0.06733398 49.15822266 -0.06733398 50.33984375 -0.07226562 C54.22431666 -0.03523859 56.20317851 0.05211901 59.5 2.25 C59.78666087 4.76388117 59.87862623 7.03074913 59.84057617 9.54541016 C59.84123329 10.67238564 59.84123329 10.67238564 59.84190369 11.8221283 C59.83980969 14.31136858 59.81645062 16.79993955 59.79296875 19.2890625 C59.78737495 21.01255933 59.78310383 22.73606091 59.78010559 24.45956421 C59.76863976 29.00037763 59.7391578 33.54090412 59.70599365 38.081604 C59.6753301 42.71321735 59.66160822 47.34487696 59.64648438 51.9765625 C59.61428963 61.06783455 59.56307243 70.15889343 59.5 79.25 C56.23389423 80.88305288 52.64736773 80.39276152 49.0625 80.375 C48.28583984 80.37886719 47.50917969 80.38273437 46.70898438 80.38671875 C43.38918828 80.38099989 40.67006494 80.30668831 37.5 79.25 C37.17 77.27 36.84 75.29 36.5 73.25 C36.05269531 73.65992188 35.60539062 74.06984375 35.14453125 74.4921875 C34.53996094 75.03101563 33.93539062 75.56984375 33.3125 76.125 C32.72082031 76.65867187 32.12914062 77.19234375 31.51953125 77.7421875 C24.97198296 82.63068583 16.30928369 82.21065804 8.5 81.25 C1.58915754 79.27295184 -3.74537296 75.38216516 -7.5 69.25 C-12.8030637 59.68402335 -12.37848887 48.87755072 -12.5 38.25 C-12.50753296 37.60035278 -12.51506592 36.95070557 -12.52282715 36.28137207 C-12.57957962 31.10428532 -12.6095565 25.92736426 -12.625 20.75 C-12.62786011 20.01223328 -12.63072021 19.27446655 -12.63366699 18.51434326 C-12.63944888 16.39492587 -12.63753718 14.27566736 -12.6328125 12.15625 C-12.63168457 10.92197266 -12.63055664 9.68769531 -12.62939453 8.41601562 C-12.42754493 3.47717473 -12.42754493 3.47717473 -11.5 1.25 C-7.65785626 -0.03071458 -4.00434108 0.02674017 0 0 Z " fill="#000000" transform="translate(184.5,92.75)"/>
</svg>
